<svg xmlns="http://www.w3.org/2000/svg" version="1.2" baseProfile="tiny" width="24" height="19" viewbox="0 0 24 19"><g fill="#eecc00" fill-opacity="1" stroke="none" transform="matrix(1,0,0,1,0,0)" font-family="Arial" font-size="13" font-weight="300" font-style="normal"><path vector-effect="none" fill-rule="evenodd" d="M2,0 L22,0 C23.104,0 24,0.896 24,2 L24,16 C24,17.104 23.104,18 22,18 L2,18 C0.896,18 0,17.104 0,16 L0,2 C0,0.896 0.896,0 2,0"></path></g><g fill="#000000" fill-opacity="0.117647" stroke="none" transform="matrix(1,0,0,1,0,-1)" font-family="Arial" font-size="13" font-weight="300" font-style="normal"><path vector-effect="none" fill-rule="evenodd" d="M2,0 L24,0 L24,19 L0,19 L0,0M2,0 L22,0 C23.104,0 24,0.896 24,2 L24,16 C24,17.104 23.104,18 22,18 L2,18 C0.896,18 0,17.104 0,16 L0,2 C0,0.896 0.896,0 2,0"></path></g><g fill="#332b00" fill-opacity="1" stroke="#ffffff" stroke-opacity="1" stroke-width="1" stroke-linecap="square" stroke-linejoin="bevel" transform="matrix(1,0,0,1,0,0)" font-family="Arial" font-size="12" font-weight="700" font-style="normal"><text fill="#332b00" fill-opacity="1" stroke="none" x="4" y="13" font-family="Arial" font-size="12" font-weight="700" font-style="normal">XS</text></g></svg>
